<svg width="70" height="65" viewBox="0 0 108 65" fill="none" xmlns="http://www.w3.org/2000/svg">
<path d="M7.14 59.1439L4.34 53.9439H3.92V59.1439H0V45.0439H6.18C7.31333 45.0439 8.27333 45.2439 9.06 45.6439C9.84667 46.0305 10.44 46.5705 10.84 47.2639C11.24 47.9439 11.44 48.7105 11.44 49.5639C11.44 50.5239 11.1733 51.3705 10.64 52.1039C10.12 52.8239 9.35333 53.3372 8.34 53.6439L11.52 59.1439H7.14ZM3.92 51.2639H5.86C6.39333 51.2639 6.79333 51.1372 7.06 50.8839C7.32667 50.6305 7.46 50.2639 7.46 49.7839C7.46 49.3305 7.32 48.9772 7.04 48.7239C6.77333 48.4572 6.38 48.3239 5.86 48.3239H3.92V51.2639Z" fill="#1C0400"/>
<path d="M23.9427 53.4039C23.9427 53.7105 23.9227 54.0172 23.8827 54.3239H16.4627C16.5027 54.9372 16.6693 55.3972 16.9627 55.7039C17.2693 55.9972 17.656 56.1439 18.1227 56.1439C18.776 56.1439 19.2427 55.8505 19.5227 55.2639H23.7027C23.5293 56.0372 23.1893 56.7305 22.6827 57.3439C22.1893 57.9439 21.5627 58.4172 20.8027 58.7639C20.0427 59.1105 19.2027 59.2839 18.2827 59.2839C17.176 59.2839 16.1893 59.0505 15.3227 58.5839C14.4693 58.1172 13.796 57.4505 13.3027 56.5839C12.8227 55.7172 12.5827 54.6972 12.5827 53.5239C12.5827 52.3505 12.8227 51.3372 13.3027 50.4839C13.7827 49.6172 14.4493 48.9505 15.3027 48.4839C16.1693 48.0172 17.1627 47.7839 18.2827 47.7839C19.3893 47.7839 20.3693 48.0105 21.2227 48.4639C22.076 48.9172 22.7427 49.5705 23.2227 50.4239C23.7027 51.2639 23.9427 52.2572 23.9427 53.4039ZM19.9427 52.4239C19.9427 51.9439 19.7827 51.5705 19.4627 51.3039C19.1427 51.0239 18.7427 50.8839 18.2627 50.8839C17.7827 50.8839 17.3893 51.0172 17.0827 51.2839C16.776 51.5372 16.576 51.9172 16.4827 52.4239H19.9427Z" fill="#1C0400"/>
<path d="M24.9069 53.5239C24.9069 52.3639 25.1135 51.3505 25.5269 50.4839C25.9535 49.6172 26.5269 48.9505 27.2469 48.4839C27.9802 48.0172 28.7935 47.7839 29.6869 47.7839C30.4602 47.7839 31.1269 47.9372 31.6869 48.2439C32.2469 48.5505 32.6802 48.9639 32.9869 49.4839V47.9239H36.9069V59.1439H32.9869V57.5839C32.6802 58.1039 32.2402 58.5172 31.6669 58.8239C31.1069 59.1305 30.4469 59.2839 29.6869 59.2839C28.7935 59.2839 27.9802 59.0505 27.2469 58.5839C26.5269 58.1172 25.9535 57.4505 25.5269 56.5839C25.1135 55.7039 24.9069 54.6839 24.9069 53.5239ZM32.9869 53.5239C32.9869 52.8039 32.7869 52.2372 32.3869 51.8239C32.0002 51.4105 31.5202 51.2039 30.9469 51.2039C30.3602 51.2039 29.8735 51.4105 29.4869 51.8239C29.1002 52.2239 28.9069 52.7905 28.9069 53.5239C28.9069 54.2439 29.1002 54.8172 29.4869 55.2439C29.8735 55.6572 30.3602 55.8639 30.9469 55.8639C31.5202 55.8639 32.0002 55.6572 32.3869 55.2439C32.7869 54.8305 32.9869 54.2572 32.9869 53.5239Z" fill="#1C0400"/>
<path d="M43.0606 44.3439V59.1439H39.1406V44.3439H43.0606Z" fill="#1C0400"/>
<path d="M49.213 44.3439V59.1439H45.293V44.3439H49.213Z" fill="#1C0400"/>
<path d="M63.5253 47.9239L56.4053 64.4839H52.1453L54.8253 58.6639L50.2253 47.9239H54.5853L56.9453 54.2839L59.2253 47.9239H63.5253Z" fill="#1C0400"/>
<path d="M81.0108 45.0439V59.1439H77.0908V51.3639L74.4308 59.1439H71.1508L68.4708 51.3039V59.1439H64.5508V45.0439H69.2908L72.8308 54.2039L76.2908 45.0439H81.0108Z" fill="#1C0400"/>
<path d="M93.9622 53.4039C93.9622 53.7105 93.9422 54.0172 93.9022 54.3239H86.4822C86.5222 54.9372 86.6889 55.3972 86.9822 55.7039C87.2888 55.9972 87.6755 56.1439 88.1422 56.1439C88.7955 56.1439 89.2622 55.8505 89.5422 55.2639H93.7222C93.5489 56.0372 93.2089 56.7305 92.7022 57.3439C92.2089 57.9439 91.5822 58.4172 90.8222 58.7639C90.0622 59.1105 89.2222 59.2839 88.3022 59.2839C87.1955 59.2839 86.2089 59.0505 85.3422 58.5839C84.4889 58.1172 83.8155 57.4505 83.3222 56.5839C82.8422 55.7172 82.6022 54.6972 82.6022 53.5239C82.6022 52.3505 82.8422 51.3372 83.3222 50.4839C83.8022 49.6172 84.4688 48.9505 85.3222 48.4839C86.1889 48.0172 87.1822 47.7839 88.3022 47.7839C89.4089 47.7839 90.3889 48.0105 91.2422 48.4639C92.0955 48.9172 92.7622 49.5705 93.2422 50.4239C93.7222 51.2639 93.9622 52.2572 93.9622 53.4039ZM89.9622 52.4239C89.9622 51.9439 89.8022 51.5705 89.4822 51.3039C89.1622 51.0239 88.7622 50.8839 88.2822 50.8839C87.8022 50.8839 87.4089 51.0172 87.1022 51.2839C86.7955 51.5372 86.5955 51.9172 86.5022 52.4239H89.9622Z" fill="#1C0400"/>
<path d="M102.946 47.8239C104.226 47.8239 105.24 48.2572 105.986 49.1239C106.746 49.9772 107.126 51.1372 107.126 52.6039V59.1439H103.206V53.1239C103.206 52.4839 103.04 51.9839 102.706 51.6239C102.373 51.2505 101.926 51.0639 101.366 51.0639C100.78 51.0639 100.32 51.2505 99.9864 51.6239C99.6531 51.9839 99.4864 52.4839 99.4864 53.1239V59.1439H95.5664V44.3439H99.4864V49.5239C99.8331 49.0172 100.3 48.6105 100.886 48.3039C101.486 47.9839 102.173 47.8239 102.946 47.8239Z" fill="#1C0400"/>
<path d="M49.5712 4.46351C51.5048 1.17883 56.2553 1.17883 58.1889 4.4635L71.9602 27.8574C73.9223 31.1905 71.5191 35.3939 67.6513 35.3939H40.1087C36.2409 35.3939 33.8377 31.1905 35.7999 27.8574L49.5712 4.46351Z" fill="#F9D040"/>
<path fill-rule="evenodd" clip-rule="evenodd" d="M47.8476 3.44891C50.5546 -1.14963 57.2054 -1.14964 59.9124 3.44891L73.6837 26.8428C76.4307 31.5092 73.0662 37.3939 67.6513 37.3939H40.1087C34.6938 37.3939 31.3293 31.5092 34.0763 26.8428L47.8476 3.44891ZM56.4653 5.4781C55.3052 3.5073 52.4549 3.5073 51.2947 5.4781L37.5234 28.872C36.3461 30.8719 37.788 33.3939 40.1087 33.3939H67.6513C69.972 33.3939 71.4139 30.8719 70.2366 28.872L56.4653 5.4781Z" fill="#1C0400"/>
<path d="M54.2991 14.0039C55.7525 14.0039 56.9191 14.3772 57.7991 15.1239C58.6791 15.8705 59.1191 16.9372 59.1191 18.3239C59.1191 19.5372 58.7125 20.4972 57.8991 21.2039C57.0991 21.9105 56.0391 22.2772 54.7191 22.3039L54.6191 23.7639H51.1591L51.0391 19.7839H52.4791C53.3858 19.7839 54.0791 19.6839 54.5591 19.4839C55.0391 19.2705 55.2791 18.8972 55.2791 18.3639C55.2791 18.0039 55.1791 17.7239 54.9791 17.5239C54.7925 17.3105 54.5325 17.2039 54.1991 17.2039C53.8258 17.2039 53.5391 17.3172 53.3391 17.5439C53.1525 17.7572 53.0591 18.0505 53.0591 18.4239H49.3591C49.3325 17.6105 49.4991 16.8705 49.8591 16.2039C50.2325 15.5239 50.7925 14.9905 51.5391 14.6039C52.2858 14.2039 53.2058 14.0039 54.2991 14.0039ZM52.9191 29.3039C52.2258 29.3039 51.6658 29.1172 51.2391 28.7439C50.8258 28.3572 50.6191 27.8705 50.6191 27.2839C50.6191 26.6972 50.8258 26.2105 51.2391 25.8239C51.6658 25.4372 52.2258 25.2439 52.9191 25.2439C53.5991 25.2439 54.1458 25.4372 54.5591 25.8239C54.9858 26.2105 55.1991 26.6972 55.1991 27.2839C55.1991 27.8572 54.9858 28.3372 54.5591 28.7239C54.1458 29.1105 53.5991 29.3039 52.9191 29.3039Z" fill="#1C0400"/>
</svg>
